<svg xmlns="http://www.w3.org/2000/svg" viewBox="0 0 550 416">
<rect width="100%" height="100%" fill="white"/>
<defs><marker id="arrow" markerWidth="7" markerHeight="7" refX="3.5" refY="3.5" orient="auto-start-reverse"><path d="M0,0 L7,3.5 L0,7 z" fill="#333"/></marker></defs>
<line x1="76" y1="60" x2="76" y2="348" stroke="#e7e7e7" stroke-width="1"/>
<line x1="148" y1="60" x2="148" y2="348" stroke="#e7e7e7" stroke-width="1"/>
<line x1="220" y1="60" x2="220" y2="348" stroke="#e7e7e7" stroke-width="1"/>
<line x1="292" y1="60" x2="292" y2="348" stroke="#e7e7e7" stroke-width="1"/>
<line x1="364" y1="60" x2="364" y2="348" stroke="#e7e7e7" stroke-width="1"/>
<line x1="436" y1="60" x2="436" y2="348" stroke="#e7e7e7" stroke-width="1"/>
<line x1="508" y1="60" x2="508" y2="348" stroke="#e7e7e7" stroke-width="1"/>
<line x1="76" y1="60" x2="508" y2="60" stroke="#e7e7e7" stroke-width="1"/>
<line x1="76" y1="132" x2="508" y2="132" stroke="#e7e7e7" stroke-width="1"/>
<line x1="76" y1="204" x2="508" y2="204" stroke="#e7e7e7" stroke-width="1"/>
<line x1="76" y1="276" x2="508" y2="276" stroke="#e7e7e7" stroke-width="1"/>
<line x1="76" y1="348" x2="508" y2="348" stroke="#e7e7e7" stroke-width="1"/>
<rect x="148" y="132" width="72" height="72" fill="rgb(142,171,194)" stroke="white" stroke-width="1.5"/>
<rect x="220" y="204" width="72" height="72" fill="rgb(142,171,194)" stroke="white" stroke-width="1.5"/>
<rect x="364" y="60" width="72" height="72" fill="rgb(142,171,194)" stroke="white" stroke-width="1.5"/>
<rect x="292" y="204" width="72" height="72" fill="rgb(142,171,194)" stroke="white" stroke-width="1.5"/>
<rect x="220" y="276" width="72" height="72" fill="rgb(142,171,194)" stroke="white" stroke-width="1.5"/>
<rect x="364" y="132" width="72" height="72" fill="rgb(142,171,194)" stroke="white" stroke-width="1.5"/>
<rect x="292" y="276" width="72" height="72" fill="rgb(142,171,194)" stroke="white" stroke-width="1.5"/>
<rect x="220" y="60" width="72" height="72" fill="rgb(142,171,194)" stroke="white" stroke-width="1.5"/>
<rect x="292" y="60" width="72" height="72" fill="rgb(142,171,194)" stroke="white" stroke-width="1.5"/>
<rect x="220" y="132" width="72" height="72" fill="rgb(142,171,194)" stroke="white" stroke-width="1.5"/>
<rect x="292" y="132" width="72" height="72" fill="rgb(142,171,194)" stroke="white" stroke-width="1.5"/>
<rect x="148" y="60" width="72" height="72" fill="rgb(142,171,194)" stroke="white" stroke-width="1.5"/>
<text x="292.00" y="180.00" text-anchor="middle" dominant-baseline="middle" font-size="19" font-family="Arial" font-weight="700" fill="#1f2529">b1</text>
<rect x="76" y="204" width="72" height="72" fill="rgb(211,177,123)" stroke="white" stroke-width="1.5"/>
<rect x="76" y="276" width="72" height="72" fill="rgb(211,177,123)" stroke="white" stroke-width="1.5"/>
<rect x="148" y="204" width="72" height="72" fill="rgb(211,177,123)" stroke="white" stroke-width="1.5"/>
<rect x="76" y="60" width="72" height="72" fill="rgb(211,177,123)" stroke="white" stroke-width="1.5"/>
<rect x="76" y="132" width="72" height="72" fill="rgb(211,177,123)" stroke="white" stroke-width="1.5"/>
<rect x="148" y="276" width="72" height="72" fill="rgb(211,177,123)" stroke="white" stroke-width="1.5"/>
<text x="136.00" y="228.00" text-anchor="middle" dominant-baseline="middle" font-size="19" font-family="Arial" font-weight="700" fill="#1f2529">b2</text>
<rect x="364" y="276" width="72" height="72" fill="rgb(148,184,157)" stroke="white" stroke-width="1.5"/>
<rect x="364" y="204" width="72" height="72" fill="rgb(148,184,157)" stroke="white" stroke-width="1.5"/>
<text x="400.00" y="276.00" text-anchor="middle" dominant-baseline="middle" font-size="19" font-family="Arial" font-weight="700" fill="#1f2529">b3</text>
<rect x="436" y="60" width="72" height="72" fill="rgb(190,145,151)" stroke="white" stroke-width="1.5"/>
<rect x="436" y="276" width="72" height="72" fill="rgb(190,145,151)" stroke="white" stroke-width="1.5"/>
<rect x="436" y="204" width="72" height="72" fill="rgb(190,145,151)" stroke="white" stroke-width="1.5"/>
<rect x="436" y="132" width="72" height="72" fill="rgb(190,145,151)" stroke="white" stroke-width="1.5"/>
<text x="472.00" y="204.00" text-anchor="middle" dominant-baseline="middle" font-size="19" font-family="Arial" font-weight="700" fill="#1f2529">b4</text>
<rect x="150" y="62" width="284" height="284" fill="none" stroke="#45545f" stroke-width="2.5" stroke-dasharray="9,7"/>
<rect x="76" y="60" width="432" height="288" fill="none" stroke="#171717" stroke-width="4"/>
<text x="292.0" y="28" text-anchor="middle" font-size="15" font-family="Microsoft YaHei,Arial" fill="#45545f">b1 矩形外接框（虚线）</text>
<line x1="76" y1="385" x2="508" y2="385" stroke="#333" stroke-width="1.5" marker-start="url(#arrow)" marker-end="url(#arrow)"/>
<text x="292.0" y="378" text-anchor="middle" font-size="16" font-family="Arial" fill="#222">6</text>
<line x1="40" y1="60" x2="40" y2="348" stroke="#333" stroke-width="1.5" marker-start="url(#arrow)" marker-end="url(#arrow)"/>
<text x="28" y="204.0" text-anchor="middle" dominant-baseline="middle" font-size="16" font-family="Arial" fill="#222">4</text>
</svg>