<svg xmlns="http://www.w3.org/2000/svg" viewBox="-24.0 -24.0 487.0 487.0">
<rect x="0" y="0" width="439.0" height="439.0" fill="white" stroke="#111" stroke-width="2"/>
<circle cx="0.00" cy="439.00" r="1.2" fill="#111" opacity="0.75"/>
<circle cx="4.00" cy="439.00" r="1.2" fill="#111" opacity="0.75"/>
<circle cx="10.00" cy="439.00" r="1.2" fill="#111" opacity="0.75"/>
<circle cx="15.00" cy="439.00" r="1.2" fill="#111" opacity="0.75"/>
<circle cx="21.00" cy="439.00" r="1.2" fill="#111" opacity="0.75"/>
<circle cx="26.00" cy="439.00" r="1.2" fill="#111" opacity="0.75"/>
<circle cx="31.00" cy="439.00" r="1.2" fill="#111" opacity="0.75"/>
<circle cx="36.00" cy="439.00" r="1.2" fill="#111" opacity="0.75"/>
<circle cx="42.00" cy="439.00" r="1.2" fill="#111" opacity="0.75"/>
<circle cx="47.00" cy="439.00" r="1.2" fill="#111" opacity="0.75"/>
<circle cx="52.00" cy="439.00" r="1.2" fill="#111" opacity="0.75"/>
<circle cx="57.00" cy="439.00" r="1.2" fill="#111" opacity="0.75"/>
<circle cx="63.00" cy="439.00" r="1.2" fill="#111" opacity="0.75"/>
<circle cx="68.00" cy="439.00" r="1.2" fill="#111" opacity="0.75"/>
<circle cx="73.00" cy="439.00" r="1.2" fill="#111" opacity="0.75"/>
<circle cx="78.00" cy="439.00" r="1.2" fill="#111" opacity="0.75"/>
<circle cx="84.00" cy="439.00" r="1.2" fill="#111" opacity="0.75"/>
<circle cx="89.00" cy="439.00" r="1.2" fill="#111" opacity="0.75"/>
<circle cx="94.00" cy="439.00" r="1.2" fill="#111" opacity="0.75"/>
<circle cx="99.00" cy="439.00" r="1.2" fill="#111" opacity="0.75"/>
<circle cx="105.00" cy="439.00" r="1.2" fill="#111" opacity="0.75"/>
<circle cx="111.00" cy="439.00" r="1.2" fill="#111" opacity="0.75"/>
<circle cx="115.00" cy="439.00" r="1.2" fill="#111" opacity="0.75"/>
<circle cx="121.00" cy="439.00" r="1.2" fill="#111" opacity="0.75"/>
<circle cx="126.00" cy="439.00" r="1.2" fill="#111" opacity="0.75"/>
<circle cx="132.00" cy="439.00" r="1.2" fill="#111" opacity="0.75"/>
<circle cx="137.00" cy="439.00" r="1.2" fill="#111" opacity="0.75"/>
<circle cx="142.00" cy="439.00" r="1.2" fill="#111" opacity="0.75"/>
<circle cx="147.00" cy="439.00" r="1.2" fill="#111" opacity="0.75"/>
<circle cx="153.00" cy="439.00" r="1.2" fill="#111" opacity="0.75"/>
<circle cx="158.00" cy="439.00" r="1.2" fill="#111" opacity="0.75"/>
<circle cx="163.00" cy="439.00" r="1.2" fill="#111" opacity="0.75"/>
<circle cx="168.00" cy="439.00" r="1.2" fill="#111" opacity="0.75"/>
<circle cx="174.00" cy="439.00" r="1.2" fill="#111" opacity="0.75"/>
<circle cx="179.00" cy="439.00" r="1.2" fill="#111" opacity="0.75"/>
<circle cx="184.00" cy="439.00" r="1.2" fill="#111" opacity="0.75"/>
<circle cx="189.00" cy="439.00" r="1.2" fill="#111" opacity="0.75"/>
<circle cx="195.00" cy="439.00" r="1.2" fill="#111" opacity="0.75"/>
<circle cx="200.00" cy="439.00" r="1.2" fill="#111" opacity="0.75"/>
<circle cx="205.00" cy="439.00" r="1.2" fill="#111" opacity="0.75"/>
<circle cx="210.00" cy="439.00" r="1.2" fill="#111" opacity="0.75"/>
<circle cx="216.00" cy="439.00" r="1.2" fill="#111" opacity="0.75"/>
<circle cx="222.00" cy="439.00" r="1.2" fill="#111" opacity="0.75"/>
<circle cx="226.00" cy="439.00" r="1.2" fill="#111" opacity="0.75"/>
<circle cx="232.00" cy="439.00" r="1.2" fill="#111" opacity="0.75"/>
<circle cx="237.00" cy="439.00" r="1.2" fill="#111" opacity="0.75"/>
<circle cx="243.00" cy="439.00" r="1.2" fill="#111" opacity="0.75"/>
<circle cx="248.00" cy="439.00" r="1.2" fill="#111" opacity="0.75"/>
<circle cx="253.00" cy="439.00" r="1.2" fill="#111" opacity="0.75"/>
<circle cx="258.00" cy="439.00" r="1.2" fill="#111" opacity="0.75"/>
<circle cx="264.00" cy="439.00" r="1.2" fill="#111" opacity="0.75"/>
<circle cx="269.00" cy="439.00" r="1.2" fill="#111" opacity="0.75"/>
<circle cx="274.00" cy="439.00" r="1.2" fill="#111" opacity="0.75"/>
<circle cx="279.00" cy="439.00" r="1.2" fill="#111" opacity="0.75"/>
<circle cx="285.00" cy="439.00" r="1.2" fill="#111" opacity="0.75"/>
<circle cx="290.00" cy="439.00" r="1.2" fill="#111" opacity="0.75"/>
<circle cx="295.00" cy="439.00" r="1.2" fill="#111" opacity="0.75"/>
<circle cx="300.00" cy="439.00" r="1.2" fill="#111" opacity="0.75"/>
<circle cx="306.00" cy="439.00" r="1.2" fill="#111" opacity="0.75"/>
<circle cx="311.00" cy="439.00" r="1.2" fill="#111" opacity="0.75"/>
<circle cx="316.00" cy="439.00" r="1.2" fill="#111" opacity="0.75"/>
<circle cx="321.00" cy="439.00" r="1.2" fill="#111" opacity="0.75"/>
<circle cx="327.00" cy="439.00" r="1.2" fill="#111" opacity="0.75"/>
<circle cx="333.00" cy="439.00" r="1.2" fill="#111" opacity="0.75"/>
<circle cx="337.00" cy="439.00" r="1.2" fill="#111" opacity="0.75"/>
<circle cx="343.00" cy="439.00" r="1.2" fill="#111" opacity="0.75"/>
<circle cx="348.00" cy="439.00" r="1.2" fill="#111" opacity="0.75"/>
<circle cx="354.00" cy="439.00" r="1.2" fill="#111" opacity="0.75"/>
<circle cx="359.00" cy="439.00" r="1.2" fill="#111" opacity="0.75"/>
<circle cx="364.00" cy="439.00" r="1.2" fill="#111" opacity="0.75"/>
<circle cx="369.00" cy="439.00" r="1.2" fill="#111" opacity="0.75"/>
<circle cx="375.00" cy="439.00" r="1.2" fill="#111" opacity="0.75"/>
<circle cx="380.00" cy="439.00" r="1.2" fill="#111" opacity="0.75"/>
<circle cx="385.00" cy="439.00" r="1.2" fill="#111" opacity="0.75"/>
<circle cx="390.00" cy="439.00" r="1.2" fill="#111" opacity="0.75"/>
<circle cx="396.00" cy="439.00" r="1.2" fill="#111" opacity="0.75"/>
<circle cx="401.00" cy="439.00" r="1.2" fill="#111" opacity="0.75"/>
<circle cx="406.00" cy="439.00" r="1.2" fill="#111" opacity="0.75"/>
<circle cx="411.00" cy="439.00" r="1.2" fill="#111" opacity="0.75"/>
<circle cx="417.00" cy="439.00" r="1.2" fill="#111" opacity="0.75"/>
<circle cx="422.00" cy="439.00" r="1.2" fill="#111" opacity="0.75"/>
<circle cx="427.00" cy="439.00" r="1.2" fill="#111" opacity="0.75"/>
<circle cx="432.00" cy="439.00" r="1.2" fill="#111" opacity="0.75"/>
<circle cx="438.00" cy="439.00" r="1.2" fill="#111" opacity="0.75"/>
<circle cx="444.00" cy="439.00" r="1.2" fill="#111" opacity="0.75"/>
<circle cx="444.00" cy="435.00" r="1.2" fill="#111" opacity="0.75"/>
<circle cx="444.00" cy="429.00" r="1.2" fill="#111" opacity="0.75"/>
<circle cx="444.00" cy="424.00" r="1.2" fill="#111" opacity="0.75"/>
<circle cx="444.00" cy="418.00" r="1.2" fill="#111" opacity="0.75"/>
<circle cx="444.00" cy="413.00" r="1.2" fill="#111" opacity="0.75"/>
<circle cx="444.00" cy="408.00" r="1.2" fill="#111" opacity="0.75"/>
<circle cx="444.00" cy="403.00" r="1.2" fill="#111" opacity="0.75"/>
<circle cx="444.00" cy="397.00" r="1.2" fill="#111" opacity="0.75"/>
<circle cx="444.00" cy="392.00" r="1.2" fill="#111" opacity="0.75"/>
<circle cx="444.00" cy="387.00" r="1.2" fill="#111" opacity="0.75"/>
<circle cx="444.00" cy="382.00" r="1.2" fill="#111" opacity="0.75"/>
<circle cx="444.00" cy="376.00" r="1.2" fill="#111" opacity="0.75"/>
<circle cx="444.00" cy="371.00" r="1.2" fill="#111" opacity="0.75"/>
<circle cx="444.00" cy="366.00" r="1.2" fill="#111" opacity="0.75"/>
<circle cx="444.00" cy="361.00" r="1.2" fill="#111" opacity="0.75"/>
<circle cx="444.00" cy="355.00" r="1.2" fill="#111" opacity="0.75"/>
<circle cx="444.00" cy="350.00" r="1.2" fill="#111" opacity="0.75"/>
<circle cx="444.00" cy="345.00" r="1.2" fill="#111" opacity="0.75"/>
<circle cx="444.00" cy="340.00" r="1.2" fill="#111" opacity="0.75"/>
<circle cx="444.00" cy="334.00" r="1.2" fill="#111" opacity="0.75"/>
<circle cx="444.00" cy="328.00" r="1.2" fill="#111" opacity="0.75"/>
<circle cx="444.00" cy="324.00" r="1.2" fill="#111" opacity="0.75"/>
<circle cx="444.00" cy="318.00" r="1.2" fill="#111" opacity="0.75"/>
<circle cx="444.00" cy="313.00" r="1.2" fill="#111" opacity="0.75"/>
<circle cx="444.00" cy="307.00" r="1.2" fill="#111" opacity="0.75"/>
<circle cx="444.00" cy="302.00" r="1.2" fill="#111" opacity="0.75"/>
<circle cx="444.00" cy="297.00" r="1.2" fill="#111" opacity="0.75"/>
<circle cx="444.00" cy="292.00" r="1.2" fill="#111" opacity="0.75"/>
<circle cx="444.00" cy="286.00" r="1.2" fill="#111" opacity="0.75"/>
<circle cx="444.00" cy="281.00" r="1.2" fill="#111" opacity="0.75"/>
<circle cx="444.00" cy="276.00" r="1.2" fill="#111" opacity="0.75"/>
<circle cx="444.00" cy="271.00" r="1.2" fill="#111" opacity="0.75"/>
<circle cx="444.00" cy="265.00" r="1.2" fill="#111" opacity="0.75"/>
<circle cx="444.00" cy="260.00" r="1.2" fill="#111" opacity="0.75"/>
<circle cx="444.00" cy="255.00" r="1.2" fill="#111" opacity="0.75"/>
<circle cx="444.00" cy="250.00" r="1.2" fill="#111" opacity="0.75"/>
<circle cx="444.00" cy="244.00" r="1.2" fill="#111" opacity="0.75"/>
<circle cx="444.00" cy="239.00" r="1.2" fill="#111" opacity="0.75"/>
<circle cx="444.00" cy="234.00" r="1.2" fill="#111" opacity="0.75"/>
<circle cx="444.00" cy="229.00" r="1.2" fill="#111" opacity="0.75"/>
<circle cx="444.00" cy="223.00" r="1.2" fill="#111" opacity="0.75"/>
<circle cx="444.00" cy="217.00" r="1.2" fill="#111" opacity="0.75"/>
<circle cx="444.00" cy="213.00" r="1.2" fill="#111" opacity="0.75"/>
<circle cx="444.00" cy="207.00" r="1.2" fill="#111" opacity="0.75"/>
<circle cx="444.00" cy="202.00" r="1.2" fill="#111" opacity="0.75"/>
<circle cx="444.00" cy="196.00" r="1.2" fill="#111" opacity="0.75"/>
<circle cx="444.00" cy="191.00" r="1.2" fill="#111" opacity="0.75"/>
<circle cx="444.00" cy="186.00" r="1.2" fill="#111" opacity="0.75"/>
<circle cx="444.00" cy="181.00" r="1.2" fill="#111" opacity="0.75"/>
<circle cx="444.00" cy="175.00" r="1.2" fill="#111" opacity="0.75"/>
<circle cx="444.00" cy="170.00" r="1.2" fill="#111" opacity="0.75"/>
<circle cx="444.00" cy="165.00" r="1.2" fill="#111" opacity="0.75"/>
<circle cx="444.00" cy="160.00" r="1.2" fill="#111" opacity="0.75"/>
<circle cx="444.00" cy="154.00" r="1.2" fill="#111" opacity="0.75"/>
<circle cx="444.00" cy="149.00" r="1.2" fill="#111" opacity="0.75"/>
<circle cx="444.00" cy="144.00" r="1.2" fill="#111" opacity="0.75"/>
<circle cx="444.00" cy="139.00" r="1.2" fill="#111" opacity="0.75"/>
<circle cx="444.00" cy="133.00" r="1.2" fill="#111" opacity="0.75"/>
<circle cx="444.00" cy="128.00" r="1.2" fill="#111" opacity="0.75"/>
<circle cx="444.00" cy="123.00" r="1.2" fill="#111" opacity="0.75"/>
<circle cx="444.00" cy="118.00" r="1.2" fill="#111" opacity="0.75"/>
<circle cx="444.00" cy="112.00" r="1.2" fill="#111" opacity="0.75"/>
<circle cx="444.00" cy="106.00" r="1.2" fill="#111" opacity="0.75"/>
<circle cx="444.00" cy="102.00" r="1.2" fill="#111" opacity="0.75"/>
<circle cx="444.00" cy="96.00" r="1.2" fill="#111" opacity="0.75"/>
<circle cx="444.00" cy="91.00" r="1.2" fill="#111" opacity="0.75"/>
<circle cx="444.00" cy="85.00" r="1.2" fill="#111" opacity="0.75"/>
<circle cx="444.00" cy="80.00" r="1.2" fill="#111" opacity="0.75"/>
<circle cx="444.00" cy="75.00" r="1.2" fill="#111" opacity="0.75"/>
<circle cx="444.00" cy="70.00" r="1.2" fill="#111" opacity="0.75"/>
<circle cx="444.00" cy="64.00" r="1.2" fill="#111" opacity="0.75"/>
<circle cx="444.00" cy="59.00" r="1.2" fill="#111" opacity="0.75"/>
<circle cx="444.00" cy="54.00" r="1.2" fill="#111" opacity="0.75"/>
<circle cx="444.00" cy="49.00" r="1.2" fill="#111" opacity="0.75"/>
<circle cx="444.00" cy="43.00" r="1.2" fill="#111" opacity="0.75"/>
<circle cx="444.00" cy="38.00" r="1.2" fill="#111" opacity="0.75"/>
<circle cx="444.00" cy="33.00" r="1.2" fill="#111" opacity="0.75"/>
<circle cx="444.00" cy="28.00" r="1.2" fill="#111" opacity="0.75"/>
<circle cx="444.00" cy="22.00" r="1.2" fill="#111" opacity="0.75"/>
<circle cx="444.00" cy="17.00" r="1.2" fill="#111" opacity="0.75"/>
<circle cx="444.00" cy="12.00" r="1.2" fill="#111" opacity="0.75"/>
<circle cx="444.00" cy="7.00" r="1.2" fill="#111" opacity="0.75"/>
<circle cx="444.00" cy="1.00" r="1.2" fill="#111" opacity="0.75"/>
<circle cx="438.00" cy="-5.00" r="1.2" fill="#111" opacity="0.75"/>
<circle cx="432.00" cy="-5.00" r="1.2" fill="#111" opacity="0.75"/>
<circle cx="427.00" cy="-5.00" r="1.2" fill="#111" opacity="0.75"/>
<circle cx="422.00" cy="-5.00" r="1.2" fill="#111" opacity="0.75"/>
<circle cx="417.00" cy="-5.00" r="1.2" fill="#111" opacity="0.75"/>
<circle cx="411.00" cy="-5.00" r="1.2" fill="#111" opacity="0.75"/>
<circle cx="406.00" cy="-5.00" r="1.2" fill="#111" opacity="0.75"/>
<circle cx="401.00" cy="-5.00" r="1.2" fill="#111" opacity="0.75"/>
<circle cx="396.00" cy="-5.00" r="1.2" fill="#111" opacity="0.75"/>
<circle cx="390.00" cy="-5.00" r="1.2" fill="#111" opacity="0.75"/>
<circle cx="385.00" cy="-5.00" r="1.2" fill="#111" opacity="0.75"/>
<circle cx="380.00" cy="-5.00" r="1.2" fill="#111" opacity="0.75"/>
<circle cx="375.00" cy="-5.00" r="1.2" fill="#111" opacity="0.75"/>
<circle cx="369.00" cy="-5.00" r="1.2" fill="#111" opacity="0.75"/>
<circle cx="364.00" cy="-5.00" r="1.2" fill="#111" opacity="0.75"/>
<circle cx="359.00" cy="-5.00" r="1.2" fill="#111" opacity="0.75"/>
<circle cx="354.00" cy="-5.00" r="1.2" fill="#111" opacity="0.75"/>
<circle cx="348.00" cy="-5.00" r="1.2" fill="#111" opacity="0.75"/>
<circle cx="343.00" cy="-5.00" r="1.2" fill="#111" opacity="0.75"/>
<circle cx="337.00" cy="-5.00" r="1.2" fill="#111" opacity="0.75"/>
<circle cx="333.00" cy="-5.00" r="1.2" fill="#111" opacity="0.75"/>
<circle cx="327.00" cy="-5.00" r="1.2" fill="#111" opacity="0.75"/>
<circle cx="321.00" cy="-5.00" r="1.2" fill="#111" opacity="0.75"/>
<circle cx="316.00" cy="-5.00" r="1.2" fill="#111" opacity="0.75"/>
<circle cx="311.00" cy="-5.00" r="1.2" fill="#111" opacity="0.75"/>
<circle cx="306.00" cy="-5.00" r="1.2" fill="#111" opacity="0.75"/>
<circle cx="300.00" cy="-5.00" r="1.2" fill="#111" opacity="0.75"/>
<circle cx="295.00" cy="-5.00" r="1.2" fill="#111" opacity="0.75"/>
<circle cx="290.00" cy="-5.00" r="1.2" fill="#111" opacity="0.75"/>
<circle cx="285.00" cy="-5.00" r="1.2" fill="#111" opacity="0.75"/>
<circle cx="279.00" cy="-5.00" r="1.2" fill="#111" opacity="0.75"/>
<circle cx="274.00" cy="-5.00" r="1.2" fill="#111" opacity="0.75"/>
<circle cx="269.00" cy="-5.00" r="1.2" fill="#111" opacity="0.75"/>
<circle cx="264.00" cy="-5.00" r="1.2" fill="#111" opacity="0.75"/>
<circle cx="258.00" cy="-5.00" r="1.2" fill="#111" opacity="0.75"/>
<circle cx="253.00" cy="-5.00" r="1.2" fill="#111" opacity="0.75"/>
<circle cx="248.00" cy="-5.00" r="1.2" fill="#111" opacity="0.75"/>
<circle cx="243.00" cy="-5.00" r="1.2" fill="#111" opacity="0.75"/>
<circle cx="237.00" cy="-5.00" r="1.2" fill="#111" opacity="0.75"/>
<circle cx="232.00" cy="-5.00" r="1.2" fill="#111" opacity="0.75"/>
<circle cx="226.00" cy="-5.00" r="1.2" fill="#111" opacity="0.75"/>
<circle cx="222.00" cy="-5.00" r="1.2" fill="#111" opacity="0.75"/>
<circle cx="216.00" cy="-5.00" r="1.2" fill="#111" opacity="0.75"/>
<circle cx="210.00" cy="-5.00" r="1.2" fill="#111" opacity="0.75"/>
<circle cx="205.00" cy="-5.00" r="1.2" fill="#111" opacity="0.75"/>
<circle cx="200.00" cy="-5.00" r="1.2" fill="#111" opacity="0.75"/>
<circle cx="195.00" cy="-5.00" r="1.2" fill="#111" opacity="0.75"/>
<circle cx="189.00" cy="-5.00" r="1.2" fill="#111" opacity="0.75"/>
<circle cx="184.00" cy="-5.00" r="1.2" fill="#111" opacity="0.75"/>
<circle cx="179.00" cy="-5.00" r="1.2" fill="#111" opacity="0.75"/>
<circle cx="174.00" cy="-5.00" r="1.2" fill="#111" opacity="0.75"/>
<circle cx="168.00" cy="-5.00" r="1.2" fill="#111" opacity="0.75"/>
<circle cx="163.00" cy="-5.00" r="1.2" fill="#111" opacity="0.75"/>
<circle cx="158.00" cy="-5.00" r="1.2" fill="#111" opacity="0.75"/>
<circle cx="153.00" cy="-5.00" r="1.2" fill="#111" opacity="0.75"/>
<circle cx="147.00" cy="-5.00" r="1.2" fill="#111" opacity="0.75"/>
<circle cx="142.00" cy="-5.00" r="1.2" fill="#111" opacity="0.75"/>
<circle cx="137.00" cy="-5.00" r="1.2" fill="#111" opacity="0.75"/>
<circle cx="132.00" cy="-5.00" r="1.2" fill="#111" opacity="0.75"/>
<circle cx="126.00" cy="-5.00" r="1.2" fill="#111" opacity="0.75"/>
<circle cx="121.00" cy="-5.00" r="1.2" fill="#111" opacity="0.75"/>
<circle cx="115.00" cy="-5.00" r="1.2" fill="#111" opacity="0.75"/>
<circle cx="111.00" cy="-5.00" r="1.2" fill="#111" opacity="0.75"/>
<circle cx="105.00" cy="-5.00" r="1.2" fill="#111" opacity="0.75"/>
<circle cx="99.00" cy="-5.00" r="1.2" fill="#111" opacity="0.75"/>
<circle cx="94.00" cy="-5.00" r="1.2" fill="#111" opacity="0.75"/>
<circle cx="89.00" cy="-5.00" r="1.2" fill="#111" opacity="0.75"/>
<circle cx="84.00" cy="-5.00" r="1.2" fill="#111" opacity="0.75"/>
<circle cx="78.00" cy="-5.00" r="1.2" fill="#111" opacity="0.75"/>
<circle cx="73.00" cy="-5.00" r="1.2" fill="#111" opacity="0.75"/>
<circle cx="68.00" cy="-5.00" r="1.2" fill="#111" opacity="0.75"/>
<circle cx="63.00" cy="-5.00" r="1.2" fill="#111" opacity="0.75"/>
<circle cx="57.00" cy="-5.00" r="1.2" fill="#111" opacity="0.75"/>
<circle cx="52.00" cy="-5.00" r="1.2" fill="#111" opacity="0.75"/>
<circle cx="47.00" cy="-5.00" r="1.2" fill="#111" opacity="0.75"/>
<circle cx="42.00" cy="-5.00" r="1.2" fill="#111" opacity="0.75"/>
<circle cx="36.00" cy="-5.00" r="1.2" fill="#111" opacity="0.75"/>
<circle cx="31.00" cy="-5.00" r="1.2" fill="#111" opacity="0.75"/>
<circle cx="26.00" cy="-5.00" r="1.2" fill="#111" opacity="0.75"/>
<circle cx="21.00" cy="-5.00" r="1.2" fill="#111" opacity="0.75"/>
<circle cx="15.00" cy="-5.00" r="1.2" fill="#111" opacity="0.75"/>
<circle cx="10.00" cy="-5.00" r="1.2" fill="#111" opacity="0.75"/>
<circle cx="4.00" cy="-5.00" r="1.2" fill="#111" opacity="0.75"/>
<circle cx="0.00" cy="-5.00" r="1.2" fill="#111" opacity="0.75"/>
<circle cx="0.00" cy="1.00" r="1.2" fill="#111" opacity="0.75"/>
<circle cx="0.00" cy="7.00" r="1.2" fill="#111" opacity="0.75"/>
<circle cx="0.00" cy="12.00" r="1.2" fill="#111" opacity="0.75"/>
<circle cx="0.00" cy="17.00" r="1.2" fill="#111" opacity="0.75"/>
<circle cx="0.00" cy="22.00" r="1.2" fill="#111" opacity="0.75"/>
<circle cx="0.00" cy="28.00" r="1.2" fill="#111" opacity="0.75"/>
<circle cx="0.00" cy="33.00" r="1.2" fill="#111" opacity="0.75"/>
<circle cx="0.00" cy="38.00" r="1.2" fill="#111" opacity="0.75"/>
<circle cx="0.00" cy="43.00" r="1.2" fill="#111" opacity="0.75"/>
<circle cx="0.00" cy="49.00" r="1.2" fill="#111" opacity="0.75"/>
<circle cx="0.00" cy="54.00" r="1.2" fill="#111" opacity="0.75"/>
<circle cx="0.00" cy="59.00" r="1.2" fill="#111" opacity="0.75"/>
<circle cx="0.00" cy="64.00" r="1.2" fill="#111" opacity="0.75"/>
<circle cx="0.00" cy="70.00" r="1.2" fill="#111" opacity="0.75"/>
<circle cx="0.00" cy="75.00" r="1.2" fill="#111" opacity="0.75"/>
<circle cx="0.00" cy="80.00" r="1.2" fill="#111" opacity="0.75"/>
<circle cx="0.00" cy="85.00" r="1.2" fill="#111" opacity="0.75"/>
<circle cx="0.00" cy="91.00" r="1.2" fill="#111" opacity="0.75"/>
<circle cx="0.00" cy="96.00" r="1.2" fill="#111" opacity="0.75"/>
<circle cx="0.00" cy="102.00" r="1.2" fill="#111" opacity="0.75"/>
<circle cx="0.00" cy="106.00" r="1.2" fill="#111" opacity="0.75"/>
<circle cx="0.00" cy="112.00" r="1.2" fill="#111" opacity="0.75"/>
<circle cx="0.00" cy="118.00" r="1.2" fill="#111" opacity="0.75"/>
<circle cx="0.00" cy="123.00" r="1.2" fill="#111" opacity="0.75"/>
<circle cx="0.00" cy="128.00" r="1.2" fill="#111" opacity="0.75"/>
<circle cx="0.00" cy="133.00" r="1.2" fill="#111" opacity="0.75"/>
<circle cx="0.00" cy="139.00" r="1.2" fill="#111" opacity="0.75"/>
<circle cx="0.00" cy="144.00" r="1.2" fill="#111" opacity="0.75"/>
<circle cx="0.00" cy="149.00" r="1.2" fill="#111" opacity="0.75"/>
<circle cx="0.00" cy="154.00" r="1.2" fill="#111" opacity="0.75"/>
<circle cx="0.00" cy="160.00" r="1.2" fill="#111" opacity="0.75"/>
<circle cx="0.00" cy="165.00" r="1.2" fill="#111" opacity="0.75"/>
<circle cx="0.00" cy="170.00" r="1.2" fill="#111" opacity="0.75"/>
<circle cx="0.00" cy="175.00" r="1.2" fill="#111" opacity="0.75"/>
<circle cx="0.00" cy="181.00" r="1.2" fill="#111" opacity="0.75"/>
<circle cx="0.00" cy="186.00" r="1.2" fill="#111" opacity="0.75"/>
<circle cx="0.00" cy="191.00" r="1.2" fill="#111" opacity="0.75"/>
<circle cx="0.00" cy="196.00" r="1.2" fill="#111" opacity="0.75"/>
<circle cx="0.00" cy="202.00" r="1.2" fill="#111" opacity="0.75"/>
<circle cx="0.00" cy="207.00" r="1.2" fill="#111" opacity="0.75"/>
<circle cx="0.00" cy="213.00" r="1.2" fill="#111" opacity="0.75"/>
<circle cx="0.00" cy="217.00" r="1.2" fill="#111" opacity="0.75"/>
<circle cx="0.00" cy="223.00" r="1.2" fill="#111" opacity="0.75"/>
<circle cx="0.00" cy="229.00" r="1.2" fill="#111" opacity="0.75"/>
<circle cx="0.00" cy="234.00" r="1.2" fill="#111" opacity="0.75"/>
<circle cx="0.00" cy="239.00" r="1.2" fill="#111" opacity="0.75"/>
<circle cx="0.00" cy="244.00" r="1.2" fill="#111" opacity="0.75"/>
<circle cx="0.00" cy="250.00" r="1.2" fill="#111" opacity="0.75"/>
<circle cx="0.00" cy="255.00" r="1.2" fill="#111" opacity="0.75"/>
<circle cx="0.00" cy="260.00" r="1.2" fill="#111" opacity="0.75"/>
<circle cx="0.00" cy="265.00" r="1.2" fill="#111" opacity="0.75"/>
<circle cx="0.00" cy="271.00" r="1.2" fill="#111" opacity="0.75"/>
<circle cx="0.00" cy="276.00" r="1.2" fill="#111" opacity="0.75"/>
<circle cx="0.00" cy="281.00" r="1.2" fill="#111" opacity="0.75"/>
<circle cx="0.00" cy="286.00" r="1.2" fill="#111" opacity="0.75"/>
<circle cx="0.00" cy="292.00" r="1.2" fill="#111" opacity="0.75"/>
<circle cx="0.00" cy="297.00" r="1.2" fill="#111" opacity="0.75"/>
<circle cx="0.00" cy="302.00" r="1.2" fill="#111" opacity="0.75"/>
<circle cx="0.00" cy="307.00" r="1.2" fill="#111" opacity="0.75"/>
<circle cx="0.00" cy="313.00" r="1.2" fill="#111" opacity="0.75"/>
<circle cx="0.00" cy="318.00" r="1.2" fill="#111" opacity="0.75"/>
<circle cx="0.00" cy="324.00" r="1.2" fill="#111" opacity="0.75"/>
<circle cx="0.00" cy="328.00" r="1.2" fill="#111" opacity="0.75"/>
<circle cx="0.00" cy="334.00" r="1.2" fill="#111" opacity="0.75"/>
<circle cx="0.00" cy="340.00" r="1.2" fill="#111" opacity="0.75"/>
<circle cx="0.00" cy="345.00" r="1.2" fill="#111" opacity="0.75"/>
<circle cx="0.00" cy="350.00" r="1.2" fill="#111" opacity="0.75"/>
<circle cx="0.00" cy="355.00" r="1.2" fill="#111" opacity="0.75"/>
<circle cx="0.00" cy="361.00" r="1.2" fill="#111" opacity="0.75"/>
<circle cx="0.00" cy="366.00" r="1.2" fill="#111" opacity="0.75"/>
<circle cx="0.00" cy="371.00" r="1.2" fill="#111" opacity="0.75"/>
<circle cx="0.00" cy="376.00" r="1.2" fill="#111" opacity="0.75"/>
<circle cx="0.00" cy="382.00" r="1.2" fill="#111" opacity="0.75"/>
<circle cx="0.00" cy="387.00" r="1.2" fill="#111" opacity="0.75"/>
<circle cx="0.00" cy="392.00" r="1.2" fill="#111" opacity="0.75"/>
<circle cx="0.00" cy="397.00" r="1.2" fill="#111" opacity="0.75"/>
<circle cx="0.00" cy="403.00" r="1.2" fill="#111" opacity="0.75"/>
<circle cx="0.00" cy="408.00" r="1.2" fill="#111" opacity="0.75"/>
<circle cx="0.00" cy="413.00" r="1.2" fill="#111" opacity="0.75"/>
<circle cx="0.00" cy="418.00" r="1.2" fill="#111" opacity="0.75"/>
<circle cx="0.00" cy="424.00" r="1.2" fill="#111" opacity="0.75"/>
<circle cx="0.00" cy="429.00" r="1.2" fill="#111" opacity="0.75"/>
<rect x="0.00" y="7.00" width="412.50" height="360.00" fill="none" stroke="#d94841" stroke-width="0.6" opacity="0.32"/>
<rect x="57.50" y="18.50" width="288.50" height="404.50" fill="none" stroke="#d94841" stroke-width="0.6" opacity="0.32"/>
<rect x="57.00" y="104.00" width="348.50" height="335.00" fill="none" stroke="#d94841" stroke-width="0.6" opacity="0.32"/>
<rect x="84.50" y="20.50" width="277.00" height="404.50" fill="none" stroke="#d94841" stroke-width="0.6" opacity="0.32"/>
<rect x="21.00" y="17.50" width="291.50" height="382.00" fill="none" stroke="#d94841" stroke-width="0.6" opacity="0.32"/>
<rect x="115.00" y="-5.00" width="297.50" height="372.00" fill="none" stroke="#d94841" stroke-width="0.6" opacity="0.32"/>
<rect x="75.50" y="47.00" width="343.50" height="321.50" fill="none" stroke="#d94841" stroke-width="0.6" opacity="0.32"/>
<rect x="147.00" y="47.00" width="272.00" height="392.00" fill="none" stroke="#d94841" stroke-width="0.6" opacity="0.32"/>
<rect x="0.00" y="1.00" width="346.50" height="317.50" fill="none" stroke="#d94841" stroke-width="0.6" opacity="0.32"/>
<rect x="30.00" y="69.50" width="327.50" height="331.00" fill="none" stroke="#d94841" stroke-width="0.6" opacity="0.32"/>
<rect x="42.00" y="100.00" width="312.50" height="339.00" fill="none" stroke="#d94841" stroke-width="0.6" opacity="0.32"/>
<rect x="179.00" y="18.00" width="225.50" height="421.00" fill="none" stroke="#d94841" stroke-width="0.6" opacity="0.32"/>
<rect x="28.50" y="20.50" width="296.00" height="348.00" fill="none" stroke="#d94841" stroke-width="0.6" opacity="0.32"/>
<rect x="78.00" y="71.00" width="273.50" height="368.00" fill="none" stroke="#d94841" stroke-width="0.6" opacity="0.32"/>
<rect x="31.00" y="-5.00" width="375.00" height="265.50" fill="none" stroke="#d94841" stroke-width="0.6" opacity="0.32"/>
<rect x="89.00" y="-5.00" width="317.00" height="319.50" fill="none" stroke="#d94841" stroke-width="0.6" opacity="0.32"/>
<rect x="137.00" y="74.50" width="269.50" height="364.50" fill="none" stroke="#d94841" stroke-width="0.6" opacity="0.32"/>
<rect x="154.50" y="85.00" width="289.50" height="340.50" fill="none" stroke="#d94841" stroke-width="0.6" opacity="0.32"/>
<rect x="214" y="156.0" width="43" height="33" fill="rgb(137,206,122)" fill-opacity="0.72" stroke="#222" stroke-width="0.45"/>
<text x="235.50" y="172.50" font-size="7" text-anchor="middle" dominant-baseline="middle" fill="#111">b0</text>
<rect x="374" y="56.0" width="65" height="37" fill="rgb(196,201,122)" fill-opacity="0.72" stroke="#222" stroke-width="0.45"/>
<text x="406.50" y="74.50" font-size="7" text-anchor="middle" dominant-baseline="middle" fill="#111">b1</text>
<rect x="50" y="155.0" width="53" height="34" fill="rgb(120,162,212)" fill-opacity="0.72" stroke="#222" stroke-width="0.45"/>
<text x="76.50" y="172.00" font-size="7" text-anchor="middle" dominant-baseline="middle" fill="#111">b2</text>
<rect x="42" y="53.0" width="67" height="37" fill="rgb(105,85,173)" fill-opacity="0.72" stroke="#222" stroke-width="0.45"/>
<text x="75.50" y="71.50" font-size="7" text-anchor="middle" dominant-baseline="middle" fill="#111">b3</text>
<rect x="55" y="93.0" width="29" height="19" fill="rgb(86,122,93)" fill-opacity="0.72" stroke="#222" stroke-width="0.45"/>
<text x="69.50" y="102.50" font-size="7" text-anchor="middle" dominant-baseline="middle" fill="#111">b4</text>
<rect x="300" y="349.0" width="49" height="39" fill="rgb(111,107,184)" fill-opacity="0.72" stroke="#222" stroke-width="0.45"/>
<text x="324.50" y="368.50" font-size="7" text-anchor="middle" dominant-baseline="middle" fill="#111">b5</text>
<rect x="399" y="38.0" width="40" height="18" fill="rgb(77,85,130)" fill-opacity="0.72" stroke="#222" stroke-width="0.45"/>
<text x="419.00" y="47.00" font-size="7" text-anchor="middle" dominant-baseline="middle" fill="#111">b6</text>
<rect x="15" y="92.0" width="40" height="22" fill="rgb(128,95,130)" fill-opacity="0.72" stroke="#222" stroke-width="0.45"/>
<text x="35.00" y="103.00" font-size="7" text-anchor="middle" dominant-baseline="middle" fill="#111">b7</text>
<rect x="112" y="236.0" width="62" height="50" fill="rgb(106,125,124)" fill-opacity="0.72" stroke="#222" stroke-width="0.45"/>
<text x="143.00" y="261.00" font-size="7" text-anchor="middle" dominant-baseline="middle" fill="#111">b8</text>
<rect x="125" y="34.0" width="41" height="16" fill="rgb(185,89,126)" fill-opacity="0.72" stroke="#222" stroke-width="0.45"/>
<text x="145.50" y="42.00" font-size="7" text-anchor="middle" dominant-baseline="middle" fill="#111">b9</text>
<rect x="77" y="416.0" width="52" height="18" fill="rgb(100,194,161)" fill-opacity="0.72" stroke="#222" stroke-width="0.45"/>
<text x="103.00" y="425.00" font-size="7" text-anchor="middle" dominant-baseline="middle" fill="#111">b10</text>
<rect x="5" y="344.0" width="59" height="39" fill="rgb(145,212,75)" fill-opacity="0.72" stroke="#222" stroke-width="0.45"/>
<text x="34.50" y="363.50" font-size="7" text-anchor="middle" dominant-baseline="middle" fill="#111">b11</text>
<rect x="112" y="5.0" width="61" height="28" fill="rgb(191,107,74)" fill-opacity="0.72" stroke="#222" stroke-width="0.45"/>
<text x="142.50" y="19.00" font-size="7" text-anchor="middle" dominant-baseline="middle" fill="#111">b12</text>
<rect x="238" y="236.0" width="57" height="48" fill="rgb(71,163,170)" fill-opacity="0.72" stroke="#222" stroke-width="0.45"/>
<text x="266.50" y="260.00" font-size="7" text-anchor="middle" dominant-baseline="middle" fill="#111">b13</text>
<rect x="269" y="111.0" width="63" height="43" fill="rgb(207,170,175)" fill-opacity="0.72" stroke="#222" stroke-width="0.45"/>
<text x="300.50" y="132.50" font-size="7" text-anchor="middle" dominant-baseline="middle" fill="#111">b14</text>
<rect x="380" y="285.0" width="52" height="59" fill="rgb(162,97,160)" fill-opacity="0.72" stroke="#222" stroke-width="0.45"/>
<text x="406.00" y="314.50" font-size="7" text-anchor="middle" dominant-baseline="middle" fill="#111">b15</text>
<rect x="272" y="52.0" width="57" height="36" fill="rgb(85,159,120)" fill-opacity="0.72" stroke="#222" stroke-width="0.45"/>
<text x="300.50" y="70.00" font-size="7" text-anchor="middle" dominant-baseline="middle" fill="#111">b16</text>
<rect x="186" y="189.0" width="66" height="44" fill="rgb(139,134,70)" fill-opacity="0.72" stroke="#222" stroke-width="0.45"/>
<text x="219.00" y="211.00" font-size="7" text-anchor="middle" dominant-baseline="middle" fill="#111">b17</text>
<rect x="6" y="240.0" width="51" height="48" fill="rgb(147,96,121)" fill-opacity="0.72" stroke="#222" stroke-width="0.45"/>
<text x="31.50" y="264.00" font-size="7" text-anchor="middle" dominant-baseline="middle" fill="#111">b18</text>
<rect x="321" y="3.0" width="50" height="31" fill="rgb(132,155,148)" fill-opacity="0.72" stroke="#222" stroke-width="0.45"/>
<text x="346.00" y="18.50" font-size="7" text-anchor="middle" dominant-baseline="middle" fill="#111">b19</text>
<rect x="180" y="412.0" width="37" height="19" fill="rgb(167,198,208)" fill-opacity="0.72" stroke="#222" stroke-width="0.45"/>
<text x="198.50" y="421.50" font-size="7" text-anchor="middle" dominant-baseline="middle" fill="#111">b20</text>
<rect x="174" y="238.0" width="64" height="50" fill="rgb(123,140,116)" fill-opacity="0.72" stroke="#222" stroke-width="0.45"/>
<text x="206.00" y="263.00" font-size="7" text-anchor="middle" dominant-baseline="middle" fill="#111">b21</text>
<rect x="1" y="156.0" width="49" height="34" fill="rgb(93,110,75)" fill-opacity="0.72" stroke="#222" stroke-width="0.45"/>
<text x="25.50" y="173.00" font-size="7" text-anchor="middle" dominant-baseline="middle" fill="#111">b22</text>
<rect x="337" y="415.0" width="49" height="20" fill="rgb(84,167,84)" fill-opacity="0.72" stroke="#222" stroke-width="0.45"/>
<text x="361.50" y="425.00" font-size="7" text-anchor="middle" dominant-baseline="middle" fill="#111">b23</text>
<rect x="276" y="5.0" width="45" height="28" fill="rgb(144,116,151)" fill-opacity="0.72" stroke="#222" stroke-width="0.45"/>
<text x="298.50" y="19.00" font-size="7" text-anchor="middle" dominant-baseline="middle" fill="#111">b24</text>
<rect x="179" y="349.0" width="54" height="39" fill="rgb(193,199,84)" fill-opacity="0.72" stroke="#222" stroke-width="0.45"/>
<text x="206.00" y="368.50" font-size="7" text-anchor="middle" dominant-baseline="middle" fill="#111">b25</text>
<rect x="113" y="113.0" width="55" height="40" fill="rgb(93,205,185)" fill-opacity="0.72" stroke="#222" stroke-width="0.45"/>
<text x="140.50" y="133.00" font-size="7" text-anchor="middle" dominant-baseline="middle" fill="#111">b26</text>
<rect x="374" y="390.0" width="65" height="25" fill="rgb(205,90,170)" fill-opacity="0.72" stroke="#222" stroke-width="0.45"/>
<text x="406.50" y="402.50" font-size="7" text-anchor="middle" dominant-baseline="middle" fill="#111">b27</text>
<rect x="393" y="344.0" width="39" height="46" fill="rgb(97,206,152)" fill-opacity="0.72" stroke="#222" stroke-width="0.45"/>
<text x="412.50" y="367.00" font-size="7" text-anchor="middle" dominant-baseline="middle" fill="#111">b28</text>
<rect x="168" y="388.0" width="62" height="24" fill="rgb(110,183,155)" fill-opacity="0.72" stroke="#222" stroke-width="0.45"/>
<text x="199.00" y="400.00" font-size="7" text-anchor="middle" dominant-baseline="middle" fill="#111">b29</text>
<rect x="155" y="349.0" width="24" height="26" fill="rgb(218,81,146)" fill-opacity="0.72" stroke="#222" stroke-width="0.45"/>
<text x="167.00" y="362.00" font-size="7" text-anchor="middle" dominant-baseline="middle" fill="#111">b30</text>
<rect x="134" y="389.0" width="34" height="26" fill="rgb(85,151,76)" fill-opacity="0.72" stroke="#222" stroke-width="0.45"/>
<text x="151.00" y="402.00" font-size="7" text-anchor="middle" dominant-baseline="middle" fill="#111">b31</text>
<rect x="60" y="112.0" width="53" height="43" fill="rgb(123,166,73)" fill-opacity="0.72" stroke="#222" stroke-width="0.45"/>
<text x="86.50" y="133.50" font-size="7" text-anchor="middle" dominant-baseline="middle" fill="#111">b32</text>
<rect x="337" y="89.0" width="35" height="22" fill="rgb(90,128,92)" fill-opacity="0.72" stroke="#222" stroke-width="0.45"/>
<text x="354.50" y="100.00" font-size="7" text-anchor="middle" dominant-baseline="middle" fill="#111">b33</text>
<rect x="230" y="388.0" width="54" height="27" fill="rgb(103,155,139)" fill-opacity="0.72" stroke="#222" stroke-width="0.45"/>
<text x="257.00" y="401.50" font-size="7" text-anchor="middle" dominant-baseline="middle" fill="#111">b34</text>
<rect x="173" y="2.0" width="38" height="31" fill="rgb(95,96,104)" fill-opacity="0.72" stroke="#222" stroke-width="0.45"/>
<text x="192.00" y="17.50" font-size="7" text-anchor="middle" dominant-baseline="middle" fill="#111">b35</text>
<rect x="233" y="349.0" width="67" height="39" fill="rgb(97,152,158)" fill-opacity="0.72" stroke="#222" stroke-width="0.45"/>
<text x="266.50" y="368.50" font-size="7" text-anchor="middle" dominant-baseline="middle" fill="#111">b36</text>
<rect x="277" y="415.0" width="60" height="20" fill="rgb(116,119,104)" fill-opacity="0.72" stroke="#222" stroke-width="0.45"/>
<text x="307.00" y="425.00" font-size="7" text-anchor="middle" dominant-baseline="middle" fill="#111">b37</text>
<rect x="284" y="388.0" width="57" height="23" fill="rgb(105,85,151)" fill-opacity="0.72" stroke="#222" stroke-width="0.45"/>
<text x="312.50" y="399.50" font-size="7" text-anchor="middle" dominant-baseline="middle" fill="#111">b38</text>
<rect x="57" y="236.0" width="55" height="52" fill="rgb(88,181,200)" fill-opacity="0.72" stroke="#222" stroke-width="0.45"/>
<text x="84.50" y="262.00" font-size="7" text-anchor="middle" dominant-baseline="middle" fill="#111">b39</text>
<rect x="211" y="7.0" width="29" height="26" fill="rgb(98,191,160)" fill-opacity="0.72" stroke="#222" stroke-width="0.45"/>
<text x="225.50" y="20.00" font-size="7" text-anchor="middle" dominant-baseline="middle" fill="#111">b40</text>
<rect x="57" y="7.0" width="55" height="27" fill="rgb(138,80,164)" fill-opacity="0.72" stroke="#222" stroke-width="0.45"/>
<text x="84.50" y="20.50" font-size="7" text-anchor="middle" dominant-baseline="middle" fill="#111">b41</text>
<rect x="57" y="288.0" width="62" height="53" fill="rgb(102,184,78)" fill-opacity="0.72" stroke="#222" stroke-width="0.45"/>
<text x="88.00" y="314.50" font-size="7" text-anchor="middle" dominant-baseline="middle" fill="#111">b42</text>
<rect x="0" y="190.0" width="61" height="46" fill="rgb(157,199,92)" fill-opacity="0.72" stroke="#222" stroke-width="0.45"/>
<text x="30.50" y="213.00" font-size="7" text-anchor="middle" dominant-baseline="middle" fill="#111">b43</text>
<rect x="309" y="189.0" width="65" height="47" fill="rgb(78,201,203)" fill-opacity="0.72" stroke="#222" stroke-width="0.45"/>
<text x="341.50" y="212.50" font-size="7" text-anchor="middle" dominant-baseline="middle" fill="#111">b44</text>
<rect x="191" y="89.0" width="44" height="23" fill="rgb(169,147,78)" fill-opacity="0.72" stroke="#222" stroke-width="0.45"/>
<text x="213.00" y="100.50" font-size="7" text-anchor="middle" dominant-baseline="middle" fill="#111">b45</text>
<rect x="38" y="412.0" width="39" height="22" fill="rgb(112,173,206)" fill-opacity="0.72" stroke="#222" stroke-width="0.45"/>
<text x="57.50" y="423.00" font-size="7" text-anchor="middle" dominant-baseline="middle" fill="#111">b46</text>
<rect x="149" y="155.0" width="65" height="33" fill="rgb(169,134,197)" fill-opacity="0.72" stroke="#222" stroke-width="0.45"/>
<text x="181.50" y="171.50" font-size="7" text-anchor="middle" dominant-baseline="middle" fill="#111">b47</text>
<rect x="0" y="7.0" width="57" height="27" fill="rgb(174,148,102)" fill-opacity="0.72" stroke="#222" stroke-width="0.45"/>
<text x="28.50" y="20.50" font-size="7" text-anchor="middle" dominant-baseline="middle" fill="#111">b48</text>
<rect x="374" y="189.0" width="65" height="47" fill="rgb(198,123,155)" fill-opacity="0.72" stroke="#222" stroke-width="0.45"/>
<text x="406.50" y="212.50" font-size="7" text-anchor="middle" dominant-baseline="middle" fill="#111">b49</text>
<rect x="371" y="2.0" width="67" height="32" fill="rgb(145,96,162)" fill-opacity="0.72" stroke="#222" stroke-width="0.45"/>
<text x="404.50" y="18.00" font-size="7" text-anchor="middle" dominant-baseline="middle" fill="#111">b50</text>
<rect x="159" y="50.0" width="57" height="38" fill="rgb(103,208,127)" fill-opacity="0.72" stroke="#222" stroke-width="0.45"/>
<text x="187.50" y="69.00" font-size="7" text-anchor="middle" dominant-baseline="middle" fill="#111">b51</text>
<rect x="132" y="189.0" width="54" height="45" fill="rgb(201,92,76)" fill-opacity="0.72" stroke="#222" stroke-width="0.45"/>
<text x="159.00" y="211.50" font-size="7" text-anchor="middle" dominant-baseline="middle" fill="#111">b52</text>
<rect x="61" y="189.0" width="21" height="43" fill="rgb(171,73,151)" fill-opacity="0.72" stroke="#222" stroke-width="0.45"/>
<text x="71.50" y="210.50" font-size="7" text-anchor="middle" dominant-baseline="middle" fill="#111">b53</text>
<rect x="338" y="35.0" width="61" height="18" fill="rgb(189,145,92)" fill-opacity="0.72" stroke="#222" stroke-width="0.45"/>
<text x="368.50" y="44.00" font-size="7" text-anchor="middle" dominant-baseline="middle" fill="#111">b54</text>
<rect x="378" y="155.0" width="56" height="34" fill="rgb(95,198,162)" fill-opacity="0.72" stroke="#222" stroke-width="0.45"/>
<text x="406.00" y="172.00" font-size="7" text-anchor="middle" dominant-baseline="middle" fill="#111">b55</text>
<rect x="38" y="36.0" width="63" height="17" fill="rgb(78,114,208)" fill-opacity="0.72" stroke="#222" stroke-width="0.45"/>
<text x="69.50" y="44.50" font-size="7" text-anchor="middle" dominant-baseline="middle" fill="#111">b56</text>
<rect x="233" y="33.0" width="47" height="18" fill="rgb(81,76,134)" fill-opacity="0.72" stroke="#222" stroke-width="0.45"/>
<text x="256.50" y="42.00" font-size="7" text-anchor="middle" dominant-baseline="middle" fill="#111">b57</text>
<rect x="103" y="155.0" width="46" height="34" fill="rgb(104,79,190)" fill-opacity="0.72" stroke="#222" stroke-width="0.45"/>
<text x="126.00" y="172.00" font-size="7" text-anchor="middle" dominant-baseline="middle" fill="#111">b58</text>
<rect x="109" y="51.0" width="50" height="37" fill="rgb(73,94,72)" fill-opacity="0.72" stroke="#222" stroke-width="0.45"/>
<text x="134.00" y="69.50" font-size="7" text-anchor="middle" dominant-baseline="middle" fill="#111">b59</text>
<rect x="235" y="88.0" width="40" height="23" fill="rgb(138,164,117)" fill-opacity="0.72" stroke="#222" stroke-width="0.45"/>
<text x="255.00" y="99.50" font-size="7" text-anchor="middle" dominant-baseline="middle" fill="#111">b60</text>
<rect x="341" y="389.0" width="33" height="23" fill="rgb(171,100,138)" fill-opacity="0.72" stroke="#222" stroke-width="0.45"/>
<text x="357.50" y="400.50" font-size="7" text-anchor="middle" dominant-baseline="middle" fill="#111">b61</text>
<rect x="217" y="415.0" width="60" height="19" fill="rgb(103,81,177)" fill-opacity="0.72" stroke="#222" stroke-width="0.45"/>
<text x="247.00" y="424.50" font-size="7" text-anchor="middle" dominant-baseline="middle" fill="#111">b62</text>
<rect x="329" y="53.0" width="45" height="36" fill="rgb(172,115,114)" fill-opacity="0.72" stroke="#222" stroke-width="0.45"/>
<text x="351.50" y="71.00" font-size="7" text-anchor="middle" dominant-baseline="middle" fill="#111">b63</text>
<rect x="82" y="189.0" width="50" height="47" fill="rgb(92,177,160)" fill-opacity="0.72" stroke="#222" stroke-width="0.45"/>
<text x="107.00" y="212.50" font-size="7" text-anchor="middle" dominant-baseline="middle" fill="#111">b64</text>
<rect x="0" y="288.0" width="57" height="56" fill="rgb(107,139,174)" fill-opacity="0.72" stroke="#222" stroke-width="0.45"/>
<text x="28.50" y="316.00" font-size="7" text-anchor="middle" dominant-baseline="middle" fill="#111">b65</text>
<rect x="119" y="288.0" width="67" height="61" fill="rgb(131,103,90)" fill-opacity="0.72" stroke="#222" stroke-width="0.45"/>
<text x="152.50" y="318.50" font-size="7" text-anchor="middle" dominant-baseline="middle" fill="#111">b66</text>
<rect x="349" y="349.0" width="44" height="40" fill="rgb(80,94,123)" fill-opacity="0.72" stroke="#222" stroke-width="0.45"/>
<text x="371.00" y="369.00" font-size="7" text-anchor="middle" dominant-baseline="middle" fill="#111">b67</text>
<rect x="295" y="236.0" width="63" height="52" fill="rgb(117,199,151)" fill-opacity="0.72" stroke="#222" stroke-width="0.45"/>
<text x="326.50" y="262.00" font-size="7" text-anchor="middle" dominant-baseline="middle" fill="#111">b68</text>
<rect x="42" y="385.0" width="54" height="27" fill="rgb(144,148,191)" fill-opacity="0.72" stroke="#222" stroke-width="0.45"/>
<text x="69.00" y="398.50" font-size="7" text-anchor="middle" dominant-baseline="middle" fill="#111">b69</text>
<rect x="227" y="112.0" width="42" height="42" fill="rgb(111,116,75)" fill-opacity="0.72" stroke="#222" stroke-width="0.45"/>
<text x="248.00" y="133.00" font-size="7" text-anchor="middle" dominant-baseline="middle" fill="#111">b70</text>
<rect x="127" y="88.0" width="64" height="22" fill="rgb(101,139,111)" fill-opacity="0.72" stroke="#222" stroke-width="0.45"/>
<text x="159.00" y="99.00" font-size="7" text-anchor="middle" dominant-baseline="middle" fill="#111">b71</text>
<rect x="186" y="288.0" width="61" height="61" fill="rgb(138,158,138)" fill-opacity="0.72" stroke="#222" stroke-width="0.45"/>
<text x="216.50" y="318.50" font-size="7" text-anchor="middle" dominant-baseline="middle" fill="#111">b72</text>
<rect x="313" y="288.0" width="67" height="61" fill="rgb(124,133,208)" fill-opacity="0.72" stroke="#222" stroke-width="0.45"/>
<text x="346.50" y="318.50" font-size="7" text-anchor="middle" dominant-baseline="middle" fill="#111">b73</text>
<rect x="0" y="54.0" width="42" height="38" fill="rgb(163,171,119)" fill-opacity="0.72" stroke="#222" stroke-width="0.45"/>
<text x="21.00" y="73.00" font-size="7" text-anchor="middle" dominant-baseline="middle" fill="#111">b74</text>
<rect x="386" y="415.0" width="28" height="19" fill="rgb(128,168,83)" fill-opacity="0.72" stroke="#222" stroke-width="0.45"/>
<text x="400.00" y="424.50" font-size="7" text-anchor="middle" dominant-baseline="middle" fill="#111">b75</text>
<rect x="94" y="90.0" width="33" height="22" fill="rgb(74,164,83)" fill-opacity="0.72" stroke="#222" stroke-width="0.45"/>
<text x="110.50" y="101.00" font-size="7" text-anchor="middle" dominant-baseline="middle" fill="#111">b76</text>
<rect x="247" y="288.0" width="66" height="57" fill="rgb(175,71,122)" fill-opacity="0.72" stroke="#222" stroke-width="0.45"/>
<text x="280.00" y="316.50" font-size="7" text-anchor="middle" dominant-baseline="middle" fill="#111">b77</text>
<rect x="240" y="1.0" width="36" height="32" fill="rgb(88,193,138)" fill-opacity="0.72" stroke="#222" stroke-width="0.45"/>
<text x="258.00" y="17.00" font-size="7" text-anchor="middle" dominant-baseline="middle" fill="#111">b78</text>
<rect x="0" y="114.0" width="60" height="41" fill="rgb(73,146,137)" fill-opacity="0.72" stroke="#222" stroke-width="0.45"/>
<text x="30.00" y="134.50" font-size="7" text-anchor="middle" dominant-baseline="middle" fill="#111">b79</text>
<rect x="280" y="36.0" width="58" height="16" fill="rgb(200,122,100)" fill-opacity="0.72" stroke="#222" stroke-width="0.45"/>
<text x="309.00" y="44.00" font-size="7" text-anchor="middle" dominant-baseline="middle" fill="#111">b80</text>
<rect x="105" y="349.0" width="50" height="40" fill="rgb(132,156,71)" fill-opacity="0.72" stroke="#222" stroke-width="0.45"/>
<text x="130.00" y="369.00" font-size="7" text-anchor="middle" dominant-baseline="middle" fill="#111">b81</text>
<rect x="252" y="189.0" width="57" height="47" fill="rgb(146,143,71)" fill-opacity="0.72" stroke="#222" stroke-width="0.45"/>
<text x="280.50" y="212.50" font-size="7" text-anchor="middle" dominant-baseline="middle" fill="#111">b82</text>
<rect x="103" y="35.0" width="22" height="16" fill="rgb(120,148,165)" fill-opacity="0.72" stroke="#222" stroke-width="0.45"/>
<text x="114.00" y="43.00" font-size="7" text-anchor="middle" dominant-baseline="middle" fill="#111">b83</text>
<rect x="372" y="93.0" width="67" height="22" fill="rgb(109,114,88)" fill-opacity="0.72" stroke="#222" stroke-width="0.45"/>
<text x="405.50" y="104.00" font-size="7" text-anchor="middle" dominant-baseline="middle" fill="#111">b84</text>
<rect x="414" y="415.0" width="25" height="20" fill="rgb(168,113,143)" fill-opacity="0.72" stroke="#222" stroke-width="0.45"/>
<text x="426.50" y="425.00" font-size="7" text-anchor="middle" dominant-baseline="middle" fill="#111">b85</text>
<rect x="216" y="51.0" width="56" height="37" fill="rgb(132,172,125)" fill-opacity="0.72" stroke="#222" stroke-width="0.45"/>
<text x="244.00" y="69.50" font-size="7" text-anchor="middle" dominant-baseline="middle" fill="#111">b86</text>
<rect x="66" y="341.0" width="39" height="44" fill="rgb(134,171,147)" fill-opacity="0.72" stroke="#222" stroke-width="0.45"/>
<text x="85.50" y="363.00" font-size="7" text-anchor="middle" dominant-baseline="middle" fill="#111">b87</text>
<rect x="5" y="383.0" width="37" height="24" fill="rgb(78,155,132)" fill-opacity="0.72" stroke="#222" stroke-width="0.45"/>
<text x="23.50" y="395.00" font-size="7" text-anchor="middle" dominant-baseline="middle" fill="#111">b88</text>
<rect x="96" y="389.0" width="38" height="27" fill="rgb(131,196,194)" fill-opacity="0.72" stroke="#222" stroke-width="0.45"/>
<text x="115.00" y="402.50" font-size="7" text-anchor="middle" dominant-baseline="middle" fill="#111">b89</text>
<rect x="332" y="111.0" width="33" height="39" fill="rgb(130,88,208)" fill-opacity="0.72" stroke="#222" stroke-width="0.45"/>
<text x="348.50" y="130.50" font-size="7" text-anchor="middle" dominant-baseline="middle" fill="#111">b90</text>
<rect x="322" y="156.0" width="56" height="33" fill="rgb(159,167,205)" fill-opacity="0.72" stroke="#222" stroke-width="0.45"/>
<text x="350.00" y="172.50" font-size="7" text-anchor="middle" dominant-baseline="middle" fill="#111">b91</text>
<rect x="12" y="407.0" width="26" height="16" fill="rgb(145,140,113)" fill-opacity="0.72" stroke="#222" stroke-width="0.45"/>
<text x="25.00" y="415.00" font-size="7" text-anchor="middle" dominant-baseline="middle" fill="#111">b92</text>
<rect x="257" y="154.0" width="65" height="35" fill="rgb(86,78,155)" fill-opacity="0.72" stroke="#222" stroke-width="0.45"/>
<text x="289.50" y="171.50" font-size="7" text-anchor="middle" dominant-baseline="middle" fill="#111">b93</text>
<rect x="168" y="112.0" width="59" height="41" fill="rgb(73,107,139)" fill-opacity="0.72" stroke="#222" stroke-width="0.45"/>
<text x="197.50" y="132.50" font-size="7" text-anchor="middle" dominant-baseline="middle" fill="#111">b94</text>
<rect x="129" y="416.0" width="51" height="19" fill="rgb(127,99,175)" fill-opacity="0.72" stroke="#222" stroke-width="0.45"/>
<text x="154.50" y="425.50" font-size="7" text-anchor="middle" dominant-baseline="middle" fill="#111">b95</text>
<rect x="365" y="115.0" width="66" height="40" fill="rgb(194,128,175)" fill-opacity="0.72" stroke="#222" stroke-width="0.45"/>
<text x="398.00" y="135.00" font-size="7" text-anchor="middle" dominant-baseline="middle" fill="#111">b96</text>
<rect x="166" y="33.0" width="67" height="17" fill="rgb(103,168,172)" fill-opacity="0.72" stroke="#222" stroke-width="0.45"/>
<text x="199.50" y="41.50" font-size="7" text-anchor="middle" dominant-baseline="middle" fill="#111">b97</text>
<rect x="275" y="89.0" width="62" height="22" fill="rgb(108,140,178)" fill-opacity="0.72" stroke="#222" stroke-width="0.45"/>
<text x="306.00" y="100.00" font-size="7" text-anchor="middle" dominant-baseline="middle" fill="#111">b98</text>
<rect x="373" y="236.0" width="66" height="49" fill="rgb(127,183,105)" fill-opacity="0.72" stroke="#222" stroke-width="0.45"/>
<text x="406.00" y="260.50" font-size="7" text-anchor="middle" dominant-baseline="middle" fill="#111">b99</text>
<text x="0" y="-12.00" font-size="12" fill="#111">n100: L=439.000, grid=439, HPWL=239551.00, deadspace=0.0736</text>
</svg>